<?xml version="1.0" encoding="utf-8"?>
<!-- Generator: Adobe Illustrator 16.0.0, SVG Export Plug-In . SVG Version: 6.00 Build 0)  -->
<!DOCTYPE svg PUBLIC "-//W3C//DTD SVG 1.1//EN" "http://www.w3.org/Graphics/SVG/1.1/DTD/svg11.dtd">
<svg version="1.1" id="_x39__1_" xmlns="http://www.w3.org/2000/svg" xmlns:xlink="http://www.w3.org/1999/xlink" x="0px" y="0px"
	 width="42px" height="42px" viewBox="0 0 42 42" enable-background="new 0 0 42 42" xml:space="preserve">
<g id="_x39_">
	<g>
		<path fill-rule="evenodd" clip-rule="evenodd" d="M23.625,36.75c0,2.899,2.351,5.25,5.25,5.25s5.25-2.351,5.25-5.25
			s-2.351-5.25-5.25-5.25S23.625,33.851,23.625,36.75z M28.875,34.125c1.449,0,2.625,1.176,2.625,2.625s-1.176,2.625-2.625,2.625
			s-2.625-1.176-2.625-2.625S27.426,34.125,28.875,34.125z M7.875,36.75c0,2.899,2.351,5.25,5.25,5.25s5.25-2.351,5.25-5.25
			s-2.351-5.25-5.25-5.25S7.875,33.851,7.875,36.75z M13.125,34.125c1.45,0,2.625,1.176,2.625,2.625s-1.175,2.625-2.625,2.625
			S10.5,38.199,10.5,36.75S11.675,34.125,13.125,34.125z M36.75,23.625h1.313l3.813-16.519C41.951,6.94,42,6.759,42,6.563
			c0-0.725-0.588-1.313-1.313-1.313H7.875V2.625h1.313c0.725,0,1.313-0.588,1.313-1.313S9.912,0,9.188,0H1.313
			C0.587,0,0,0.588,0,1.313s0.587,1.313,1.313,1.313H5.25V26.25c0,2.899,2.351,5.25,5.25,5.25h2.625h15.75h11.813
			c0.041,0,0-1.302,0-2.625H10.5c-1.45,0-2.625-1.175-2.625-2.625v-0.276L36.75,23.625z M7.875,7.875h31.5L36.02,21.3L7.875,23.521
			V7.875z"/>
	</g>
</g>
</svg>
