<?xml version="1.0" encoding="utf-8"?>
<!-- Generator: Adobe Illustrator 16.0.0, SVG Export Plug-In . SVG Version: 6.00 Build 0)  -->
<!DOCTYPE svg PUBLIC "-//W3C//DTD SVG 1.1//EN" "http://www.w3.org/Graphics/SVG/1.1/DTD/svg11.dtd">
<svg version="1.1" xmlns="http://www.w3.org/2000/svg" xmlns:xlink="http://www.w3.org/1999/xlink" x="0px" y="0px" width="90px"
	 height="90px" viewBox="0 0 90 90" enable-background="new 0 0 90 90" xml:space="preserve">
<g id="_x36__1_" enable-background="new    ">
	<g id="_x36_">
		<g>
			<path fill-rule="evenodd" clip-rule="evenodd" d="M46.125,24.125h-5.25V18c0-0.483-0.392-0.875-0.875-0.875
				S39.125,17.517,39.125,18v7c0,0.483,0.392,0.875,0.875,0.875h6.125C46.608,25.875,47,25.483,47,25S46.608,24.125,46.125,24.125z
				 M27.75,15.375c0-1.45,1.175-2.625,2.625-2.625h1.75V11h-1.75C27.959,11,26,12.959,26,15.375v1.75c1.207,0,1.443,0,1.75,0V15.375
				z M52.25,25c0-6.766-5.484-12.25-12.25-12.25S27.75,18.234,27.75,25c0,4.64,2.581,8.676,6.383,10.755L31.25,39h2.625l2.349-2.35
				c1.19,0.386,2.458,0.6,3.776,0.6s2.585-0.214,3.776-0.6L46.125,39h2.625l-2.883-3.245C49.67,33.676,52.25,29.64,52.25,25z
				 M40,35.5c-5.799,0-10.5-4.701-10.5-10.5S34.201,14.5,40,14.5S50.5,19.201,50.5,25S45.799,35.5,40,35.5z M49.625,11h-1.75v1.75
				h1.75c1.449,0,2.625,1.175,2.625,2.625v1.75c0.307,0,0.543,0,1.75,0v-1.75C54,12.959,52.041,11,49.625,11z"/>
		</g>
	</g>
</g>
<g id="椭圆_3_副本_1_" enable-background="new    ">
	<g id="椭圆_3_副本">
		<g>
			<circle fill-rule="evenodd" clip-rule="evenodd" fill="#020202" cx="45" cy="45" r="45"/>
		</g>
	</g>
</g>
<g id="_x38__副本_1_" enable-background="new    ">
	<g id="_x38__副本">
		<g>
			<path fill-rule="evenodd" clip-rule="evenodd" fill="#FFFFFF" d="M39.656,63.45c-1.708,0-3.094,1.41-3.094,3.149
				c0,1.74,1.385,3.15,3.094,3.15c1.709,0,3.094-1.41,3.094-3.15C42.75,64.86,41.365,63.45,39.656,63.45z M55.125,63.45
				c-1.709,0-3.094,1.41-3.094,3.149c0,1.74,1.385,3.15,3.094,3.15s3.094-1.41,3.094-3.15C58.219,64.86,56.834,63.45,55.125,63.45z
				 M33.421,35.1l-3.86-12.6H19.547C18.692,22.5,18,23.205,18,24.075s0.692,1.575,1.547,1.575h7.734l3.11,9.449h-0.016L33.469,54
				c0,3.479,2.77,6.3,6.188,6.3h17.016c3.418,0,6.188-2.82,6.188-6.3L67.5,35.1H33.421z M59.766,54c0,1.739-1.385,3.15-3.094,3.15
				H39.656c-1.708,0-3.094-1.411-3.094-3.15l-2.578-15.75h29.648L59.766,54z"/>
		</g>
	</g>
</g>
</svg>
