<?xml version="1.0" encoding="utf-8"?>
<!-- Generator: Adobe Illustrator 16.0.0, SVG Export Plug-In . SVG Version: 6.00 Build 0)  -->
<!DOCTYPE svg PUBLIC "-//W3C//DTD SVG 1.1//EN" "http://www.w3.org/Graphics/SVG/1.1/DTD/svg11.dtd">
<svg version="1.1" id="_x38__1_" xmlns="http://www.w3.org/2000/svg" xmlns:xlink="http://www.w3.org/1999/xlink" x="0px" y="0px"
	 width="40px" height="37px" viewBox="0 0 40 37" enable-background="new 0 0 40 37" xml:space="preserve">
<g id="_x38_">
	<g>
		<path fill-rule="evenodd" clip-rule="evenodd" fill="#666666" d="M16.88,32.021c-1.325,0-2.4,1.089-2.4,2.432
			c0,1.344,1.075,2.433,2.4,2.433c1.326,0,2.4-1.089,2.4-2.433C19.28,33.109,18.206,32.021,16.88,32.021z M12.56,10.007l-2.88-9.6
			l-8.4,0.001c-0.663,0-1.2,0.544-1.2,1.216c0,0.671,0.297,1.663,0.96,1.663h6.72l1.933,6.848H9.68l1.92,20.03
			c2.091,0.003,3.104,0,4.8,0h18.241c0.695-4.456,0.504-3.073,0.959-5.76l2.881-14.398H12.56z M31.76,27.285
			c-0.909-0.021-0.354-0.128-1.68-0.128l-12.72,0.128c-1.325,0-1.652-0.021-2.88,0l-0.96-14.398h21.121L31.76,27.285z M28.88,32.021
			c-1.325,0-2.399,1.089-2.399,2.432c0,1.344,1.074,2.433,2.399,2.433s2.399-1.089,2.399-2.433
			C31.279,33.109,30.205,32.021,28.88,32.021z"/>
	</g>
</g>
</svg>
