<?xml version="1.0" encoding="utf-8"?>
<!-- Generator: Adobe Illustrator 16.0.0, SVG Export Plug-In . SVG Version: 6.00 Build 0)  -->
<!DOCTYPE svg PUBLIC "-//W3C//DTD SVG 1.1//EN" "http://www.w3.org/Graphics/SVG/1.1/DTD/svg11.dtd">
<svg version="1.1" id="Update_arrow_Icon_1_" xmlns="http://www.w3.org/2000/svg" xmlns:xlink="http://www.w3.org/1999/xlink"
	 x="0px" y="0px" width="22px" height="20px" viewBox="0 0 22 20" enable-background="new 0 0 22 20" xml:space="preserve">
<g id="Update_arrow_Icon">
	<g>
		<path fill-rule="evenodd" clip-rule="evenodd" fill="#999999" d="M11.834,0c-3.63,0-6.779,1.895-8.575,4.71L0.212,3.663
			c-0.284,0.501-0.333,1.12-0.033,1.65l1.581,5.039c0.45,0.796,1.458,1.062,2.252,0.594l3.76-2.962
			C8.3,7.673,8.573,7.112,8.582,6.539L5.737,5.562C7.12,3.714,9.32,2.5,11.834,2.5c4.211,0,7.625,3.357,7.625,7.5
			s-3.414,7.5-7.625,7.5c-2.25,0-4.25-0.977-5.646-2.5H5.48l-1.556-0.884c0.09,0.331,0.245,0.629,0.445,0.884h-1.33
			c1.758,2.986,5.034,5,8.795,5C17.448,20,22,15.522,22,10S17.448,0,11.834,0z"/>
	</g>
</g>
</svg>
