<?xml version="1.0" encoding="utf-8"?>
<!-- Generator: Adobe Illustrator 16.0.0, SVG Export Plug-In . SVG Version: 6.00 Build 0)  -->
<!DOCTYPE svg PUBLIC "-//W3C//DTD SVG 1.1//EN" "http://www.w3.org/Graphics/SVG/1.1/DTD/svg11.dtd">
<svg version="1.1" id="圆角矩形_5_副本_5_1_" xmlns="http://www.w3.org/2000/svg" xmlns:xlink="http://www.w3.org/1999/xlink"
	 x="0px" y="0px" width="36px" height="36px" viewBox="0 0 36 36" enable-background="new 0 0 36 36" xml:space="preserve">
<g id="圆角矩形_5_副本_5">
	<g>
		<path fill-rule="evenodd" clip-rule="evenodd" fill="#666666" d="M0.48,0.367c0.018,1.713,0,0.86,0,1.92v13.439
			c1.269,0.045,0.859,0,1.92,0h11.52c1.061,0,0.588,0.108,1.92,0V2.287c0-1.06-0.018-0.271,0-1.92H0.48z M12.96,10.927
			c0,1.061-0.081,1.096,0,1.92h-9.6v-9.6h7.68c1.061,0,1.032,0.018,1.92,0V10.927z M36,0.367H20.641c0.018,1.713,0,0.86,0,1.92
			v13.439c1.268,0.045,0.859,0,1.92,0h11.52c1.061,0,0.588,0.108,1.92,0V2.287C36,1.228,35.982,2.017,36,0.367z M33.12,10.927
			c0,1.061-0.081,1.096,0,1.92H23.52v-9.6H31.2c1.06,0,1.032,0.018,1.92,0V10.927z M0.48,20.525c0.018,1.713,0,0.859,0,1.92v13.439
			c1.269,0.045,0.859-0.001,1.92-0.001h11.52c1.061,0,0.588,0.109,1.92,0.001V22.445c0-1.061-0.018-0.271,0-1.92H0.48z
			 M12.96,31.085c0,1.06-0.081,1.096,0,1.92h-9.6v-9.6h7.68c1.061,0,1.032,0.018,1.92,0V31.085z M20.641,20.525
			c0.018,1.713,0,0.859,0,1.92v13.439c1.268,0.045,0.859-0.001,1.92-0.001h11.52c1.061,0,0.588,0.109,1.92,0.001V22.445
			c0-1.061-0.018-0.271,0-1.92H20.641z M33.12,31.085c0,1.06-0.081,1.096,0,1.92H23.52v-9.6H31.2c1.06,0,1.032,0.018,1.92,0V31.085z
			"/>
	</g>
</g>
</svg>
