<?xml version="1.0" encoding="utf-8"?>
<!-- Generator: Adobe Illustrator 16.0.0, SVG Export Plug-In . SVG Version: 6.00 Build 0)  -->
<!DOCTYPE svg PUBLIC "-//W3C//DTD SVG 1.1//EN" "http://www.w3.org/Graphics/SVG/1.1/DTD/svg11.dtd">
<svg version="1.1" id="_x39__1_" xmlns="http://www.w3.org/2000/svg" xmlns:xlink="http://www.w3.org/1999/xlink" x="0px" y="0px"
	 width="34px" height="36px" viewBox="0 0 34 36" enable-background="new 0 0 34 36" xml:space="preserve">
<g id="_x39_">
	<g>
		<path fill-rule="evenodd" clip-rule="evenodd" fill="#666666" d="M33.551,2.256c0.263-0.236,0.438-0.575,0.438-0.969
			c0-0.554-0.334-1.016-0.797-1.196c-0.182-0.079-0.375-0.102-0.568-0.089H1.348c-0.35-0.023-0.705,0.089-0.972,0.363
			c-0.493,0.506-0.493,1.325,0,1.831l15.686,20.547v10.423h-4.718c-0.695,0-1.258,0.847-1.258,1.557
			c0,0.711,0.563,1.286,1.258,1.286h12.581c0.694,0,1.258-0.575,1.258-1.286c0-0.71-0.878-1.557-1.572-1.557h-4.718V22.743
			L33.551,2.256z M17.582,19.825L4.74,2.844h24.532L17.582,19.825z"/>
	</g>
</g>
</svg>
