<?xml version="1.0" encoding="utf-8"?>
<!-- Generator: Adobe Illustrator 16.0.0, SVG Export Plug-In . SVG Version: 6.00 Build 0)  -->
<!DOCTYPE svg PUBLIC "-//W3C//DTD SVG 1.1//EN" "http://www.w3.org/Graphics/SVG/1.1/DTD/svg11.dtd">
<svg version="1.1" id="_x31__1_" xmlns="http://www.w3.org/2000/svg" xmlns:xlink="http://www.w3.org/1999/xlink" x="0px" y="0px"
	 width="26px" height="34px" viewBox="0 0 26 34" enable-background="new 0 0 26 34" xml:space="preserve">
<g id="_x31_">
	<g>
		<path fill-rule="evenodd" clip-rule="evenodd" d="M13,9.563c-1.795,0-3.25,1.427-3.25,3.188s1.455,3.188,3.25,3.188
			s3.25-1.427,3.25-3.188S14.795,9.563,13,9.563z M13,0C5.82,0,0,5.709,0,12.75C0,18.081,10.839,34.011,13,34
			c2.127,0.011,13-15.99,13-21.25C26,5.709,20.18,0,13,0z M13,18.063c-2.992,0-5.417-2.379-5.417-5.313S10.008,7.438,13,7.438
			c2.992,0,5.416,2.379,5.416,5.313S15.992,18.063,13,18.063z"/>
	</g>
</g>
</svg>
