<?xml version="1.0" encoding="utf-8"?>
<!-- Generator: Adobe Illustrator 16.0.0, SVG Export Plug-In . SVG Version: 6.00 Build 0)  -->
<!DOCTYPE svg PUBLIC "-//W3C//DTD SVG 1.1//EN" "http://www.w3.org/Graphics/SVG/1.1/DTD/svg11.dtd">
<svg version="1.1" id="_x39__1_" xmlns="http://www.w3.org/2000/svg" xmlns:xlink="http://www.w3.org/1999/xlink" x="0px" y="0px"
	 width="24px" height="36px" viewBox="0 0 24 36" enable-background="new 0 0 24 36" xml:space="preserve">
<g id="_x39_">
	<g>
		<path fill-rule="evenodd" clip-rule="evenodd" d="M21.6,18.021V9c0-4.971-4.298-9-9.6-9S2.4,4.029,2.4,9v9.021
			C0.899,19.898,0,22.223,0,24.75C0,30.963,5.373,36,12,36c6.627,0,12-5.037,12-11.25C24,22.223,23.101,19.898,21.6,18.021z
			 M13.2,28.125c0,0.621-0.538,1.125-1.2,1.125s-1.2-0.504-1.2-1.125v-4.5c0-0.621,0.538-1.125,1.2-1.125s1.2,0.504,1.2,1.125
			V28.125z M19.2,15.766C17.193,14.35,14.705,13.5,12,13.5s-5.193,0.85-7.2,2.266V9c0-3.728,3.224-6.75,7.2-6.75S19.2,5.272,19.2,9
			V15.766z"/>
	</g>
</g>
</svg>
