<?xml version="1.0" encoding="utf-8"?>
<!-- Generator: Adobe Illustrator 16.0.0, SVG Export Plug-In . SVG Version: 6.00 Build 0)  -->
<!DOCTYPE svg PUBLIC "-//W3C//DTD SVG 1.1//EN" "http://www.w3.org/Graphics/SVG/1.1/DTD/svg11.dtd">
<svg version="1.1" id="形状_3_1_" xmlns="http://www.w3.org/2000/svg" xmlns:xlink="http://www.w3.org/1999/xlink" x="0px"
	 y="0px" width="69px" height="54px" viewBox="0 0 69 54" enable-background="new 0 0 69 54" xml:space="preserve">
<g id="形状_3">
	<g>
		<path fill-rule="evenodd" clip-rule="evenodd" fill="#020202" d="M51.096,26.269c-2.684-0.51-1.379-1.925-1.379-1.925
			s2.625-4.24-0.52-7.322c-3.896-3.817-13.366,0.485-13.366,0.485c-3.617,1.101-2.658-0.502-2.147-3.228
			c0-3.212-1.123-8.646-10.757-5.437C13.302,12.071,5.038,23.38,5.038,23.38c-5.747,7.515-4.986,13.323-4.986,13.323
			c1.436,12.822,15.339,16.342,26.152,17.175c11.377,0.874,26.732-3.843,31.388-13.534C62.248,30.637,53.787,26.794,51.096,26.269z
			 M27.047,50.262C15.753,50.779,6.623,45.229,6.623,37.844c0-7.394,9.13-13.322,20.424-13.833
			c11.302-0.51,20.449,4.053,20.449,11.432C47.496,42.827,38.349,49.76,27.047,50.262z M24.793,28.881
			C13.434,30.184,14.747,40.61,14.747,40.61s-0.117,3.302,3.045,4.983c6.646,3.527,13.49,1.392,16.949-2.983
			C38.2,38.233,36.17,27.587,24.793,28.881z M21.929,43.515c-2.121,0.243-3.83-0.954-3.83-2.693c0-1.73,1.518-3.544,3.64-3.761
			c2.437-0.228,4.021,1.148,4.021,2.888C25.76,41.679,24.042,43.279,21.929,43.515z M28.625,37.925
			c-0.718,0.526-1.603,0.453-1.982-0.178c-0.396-0.615-0.247-1.602,0.479-2.12c0.842-0.613,1.717-0.437,2.096,0.18
			C29.599,36.437,29.327,37.383,28.625,37.925z M56.627,21.754c0.916,0,1.693-0.663,1.824-1.529
			c0.017-0.064,0.025-0.121,0.025-0.193c1.387-12.224-10.221-10.12-10.221-10.12c-1.031,0-1.857,0.817-1.857,1.836
			c0,1.003,0.826,1.82,1.857,1.82c8.338-1.804,6.498,6.367,6.498,6.367C54.754,20.945,55.594,21.754,56.627,21.754z M55.273,0.419
			c-4.013-0.921-8.141-0.127-9.297,0.09c-0.09,0.009-0.174,0.091-0.256,0.107c-0.04,0.008-0.064,0.049-0.064,0.049
			c-1.141,0.315-1.975,1.35-1.975,2.572c0,1.456,1.205,2.653,2.708,2.653c0,0,1.462-0.191,2.452-0.571
			c0.982-0.388,9.295-0.289,13.424,6.506c2.253,4.959,0.99,8.277,0.833,8.811c0,0-0.536,1.289-0.536,2.558
			c0,1.464,1.206,2.384,2.698,2.384c1.248,0,2.296-0.166,2.603-2.234h0.017C72.313,8.864,62.455,2.062,55.273,0.419z"/>
	</g>
</g>
</svg>
