<?xml version="1.0" encoding="utf-8"?>
<!-- Generator: Adobe Illustrator 16.0.0, SVG Export Plug-In . SVG Version: 6.00 Build 0)  -->
<!DOCTYPE svg PUBLIC "-//W3C//DTD SVG 1.1//EN" "http://www.w3.org/Graphics/SVG/1.1/DTD/svg11.dtd">
<svg version="1.1" id="形状_1_1_" xmlns="http://www.w3.org/2000/svg" xmlns:xlink="http://www.w3.org/1999/xlink" x="0px"
	 y="0px" width="77px" height="63px" viewBox="0 0 77 63" enable-background="new 0 0 77 63" xml:space="preserve">
<g id="形状_1">
	<g>
		<path fill-rule="evenodd" clip-rule="evenodd" fill="#020202" d="M52.127,19.062c0.884,0,1.758,0.065,2.625,0.162
			C52.394,8.194,40.653,0,27.252,0C12.271,0-0.002,10.257-0.002,23.28c0,7.519,4.083,13.691,10.906,18.479l-2.726,8.235l9.528-4.799
			c3.409,0.678,6.145,1.374,9.547,1.374c0.855,0,1.703-0.042,2.544-0.108c-0.533-1.83-0.841-3.747-0.841-5.736
			C28.956,28.767,39.181,19.062,52.127,19.062z M37.473,11.64c2.053,0,3.412,1.356,3.412,3.416c0,2.052-1.359,3.426-3.412,3.426
			c-2.042,0-4.092-1.374-4.092-3.426C33.38,12.996,35.43,11.64,37.473,11.64z M18.398,18.481c-2.042,0-4.104-1.374-4.104-3.426
			c0-2.06,2.062-3.416,4.104-3.416s3.402,1.356,3.402,3.416C21.8,17.107,20.441,18.481,18.398,18.481z M77.002,40.397
			c0-10.944-10.904-19.865-23.15-19.865c-12.967,0-23.181,8.921-23.181,19.865c0,10.963,10.214,19.864,23.181,19.864
			c2.715,0,5.452-0.688,8.178-1.373L69.505,63l-2.05-6.841C72.926,52.037,77.002,46.57,77.002,40.397z M46.336,36.972
			c-1.357,0-2.727-1.355-2.727-2.739c0-1.363,1.369-2.737,2.727-2.737c2.062,0,3.412,1.374,3.412,2.737
			C49.748,35.616,48.397,36.972,46.336,36.972z M61.327,36.972c-1.347,0-2.707-1.355-2.707-2.739c0-1.363,1.36-2.737,2.707-2.737
			c2.043,0,3.411,1.374,3.411,2.737C64.738,35.616,63.37,36.972,61.327,36.972z"/>
	</g>
</g>
</svg>
