<?xml version="1.0" encoding="utf-8"?>
<!-- Generator: Adobe Illustrator 16.0.0, SVG Export Plug-In . SVG Version: 6.00 Build 0)  -->
<!DOCTYPE svg PUBLIC "-//W3C//DTD SVG 1.1//EN" "http://www.w3.org/Graphics/SVG/1.1/DTD/svg11.dtd">
<svg version="1.1" id="_x38__1_" xmlns="http://www.w3.org/2000/svg" xmlns:xlink="http://www.w3.org/1999/xlink" x="0px" y="0px"
	 width="22px" height="36px" viewBox="0 0 22 36" enable-background="new 0 0 22 36" xml:space="preserve">
<g id="_x38_">
	<g>
		<path fill-rule="evenodd" clip-rule="evenodd" d="M17.111,0H4.889C2.189,0,0,2.015,0,4.5v27C0,33.985,2.189,36,4.889,36h12.223
			C19.811,36,22,33.985,22,31.5v-27C22,2.015,19.811,0,17.111,0z M11,31.5c-1.35,0-2.444-1.007-2.444-2.25
			C8.556,28.008,9.65,27,11,27c1.35,0,2.444,1.008,2.444,2.25C13.444,30.493,12.35,31.5,11,31.5z M19.556,22.5H2.444V7.875h17.111
			V22.5z M19.556,5.625H2.444V4.5c0-1.242,1.095-2.25,2.444-2.25h12.223c1.35,0,2.444,1.008,2.444,2.25V5.625z"/>
	</g>
</g>
</svg>
