<?xml version="1.0" encoding="utf-8"?>
<!-- Generator: Adobe Illustrator 16.0.0, SVG Export Plug-In . SVG Version: 6.00 Build 0)  -->
<!DOCTYPE svg PUBLIC "-//W3C//DTD SVG 1.1//EN" "http://www.w3.org/Graphics/SVG/1.1/DTD/svg11.dtd">
<svg version="1.1" id="形状_2_1_" xmlns="http://www.w3.org/2000/svg" xmlns:xlink="http://www.w3.org/1999/xlink" x="0px"
	 y="0px" width="55px" height="56px" viewBox="0 0 55 56" enable-background="new 0 0 55 56" xml:space="preserve">
<g id="形状_2">
	<g>
		<polygon fill-rule="evenodd" clip-rule="evenodd" fill="#020202" points="54.867,36.988 54.72,35.975 54.534,34.985 
			54.387,34.478 54.244,33.937 54.055,33.421 53.86,32.848 53.637,32.307 53.395,31.75 52.963,30.844 52.58,30.044 52.196,29.33 
			51.863,28.665 51.48,28.058 51.197,27.501 50.604,26.67 49.854,25.563 49.682,25.289 49.623,25.172 49.623,25.08 49.749,24.706 
			49.922,24.374 50.073,23.717 50.158,23.377 50.158,23.026 50.199,22.744 50.199,22.461 50.158,22.136 50.107,21.87 49.998,21.33 
			49.854,20.807 49.724,20.325 49.521,19.857 49.289,19.468 49.108,19.101 48.906,18.752 48.59,18.237 48.473,18.054 48.439,17.896 
			48.291,16.897 48.199,16.241 48.092,15.426 47.925,14.586 47.664,13.621 47.516,13.081 47.398,12.623 47.234,12.091 
			47.051,11.525 46.867,11.002 46.632,10.437 46.151,9.348 45.869,8.832 45.525,8.241 45.203,7.732 44.883,7.16 44.428,6.628 
			44.045,6.112 43.577,5.58 43.102,5.098 42.621,4.632 42.053,4.148 41.754,3.975 41.471,3.733 40.855,3.31 40.146,2.851 
			39.422,2.437 38.674,2.063 37.857,1.721 37.09,1.396 36.289,1.113 35.416,0.88 34.617,0.673 33.766,0.491 32.962,0.3 
			32.094,0.208 31.242,0.107 30.396,0 29.52,0 28.674,0 27.856,0 26.997,0.048 26.188,0.158 25.383,0.266 24.566,0.398 
			23.757,0.549 22.99,0.731 22.224,0.973 21.512,1.214 20.8,1.446 20.083,1.788 19.41,2.063 18.812,2.395 18.188,2.769 
			17.613,3.159 17.046,3.6 16.579,4.008 15.846,4.681 15.239,5.306 14.658,5.911 14.123,6.527 13.622,7.16 13.183,7.775 
			12.756,8.391 12.558,8.665 12.375,8.997 11.974,9.58 11.658,10.162 11.376,10.71 11.132,11.293 10.892,11.825 10.691,12.323 
			10.508,12.855 10.323,13.347 10.074,14.236 9.894,15.093 9.792,15.808 9.691,16.424 9.691,16.897 9.691,17.281 9.691,17.621 
			9.519,17.805 9.358,18.054 9.234,18.278 9.126,18.52 8.992,19.044 8.844,19.525 8.794,19.958 8.76,20.274 8.76,20.614 
			8.419,21.098 8.177,21.58 7.994,22.045 7.858,22.461 7.753,22.86 7.652,23.234 7.652,23.551 7.652,23.899 7.652,24.19 
			7.711,24.423 7.795,24.848 7.901,25.172 7.711,25.313 7.176,25.704 6.469,26.336 6.035,26.71 5.611,27.076 5.318,27.368 
			5.078,27.626 4.563,28.166 4.071,28.707 3.688,29.173 3.229,29.846 2.789,30.452 2.357,31.127 1.99,31.75 1.687,32.415 
			1.365,33.03 1.131,33.637 0.882,34.27 0.697,34.885 0.516,35.518 0.356,36.066 0.266,36.656 0.167,37.205 0.082,37.737 
			0.032,38.776 0.032,39.741 0.032,40.173 0.082,40.598 0.217,41.321 0.266,41.638 0.356,41.961 0.465,42.27 0.566,42.486 
			0.731,42.886 0.857,42.968 0.933,43.135 1.03,43.176 1.089,43.176 1.131,43.176 1.557,43.135 1.99,43.026 2.357,42.886 
			2.74,42.645 3.088,42.419 3.406,42.128 3.747,41.821 4.038,41.505 4.312,41.146 4.563,40.823 4.796,40.557 4.943,40.249 
			5.23,39.741 5.318,39.534 5.369,39.408 5.394,39.268 5.462,39.15 5.512,39.126 5.611,39.076 5.67,39.076 5.695,39.126 
			5.744,39.126 5.794,39.15 5.955,39.842 6.127,40.398 6.361,40.98 6.595,41.505 6.793,42.028 7.096,42.486 7.319,42.968 
			7.568,43.409 7.858,43.791 8.078,44.158 8.659,44.84 9.168,45.447 9.657,45.921 10.142,46.345 10.559,46.677 11.182,47.218 
			11.433,47.334 11.517,47.451 11.517,47.508 11.458,47.559 11.433,47.559 11.309,47.601 10.841,47.634 10.407,47.691 
			10.041,47.741 9.657,47.824 9.325,47.925 8.992,48.024 8.701,48.175 8.469,48.315 8.177,48.407 7.994,48.556 7.795,48.673 
			7.584,48.839 7.319,49.163 7.218,49.313 7.096,49.445 6.928,49.786 6.835,50.069 6.726,50.353 6.702,50.602 6.702,50.927 
			6.702,51.067 6.654,51.3 6.654,51.534 6.595,51.767 6.595,51.975 6.654,52.199 6.702,52.399 6.835,52.789 6.928,52.972 
			7.045,53.155 7.176,53.337 7.319,53.497 7.509,53.679 7.652,53.828 8.078,54.137 8.503,54.395 8.992,54.628 9.519,54.836 
			10.074,55.06 10.691,55.201 11.309,55.4 11.974,55.534 12.64,55.633 13.322,55.734 14.03,55.833 15.424,55.975 16.863,56 
			18.188,56 18.812,56 19.41,56 20.033,55.975 20.568,55.916 21.082,55.874 21.566,55.833 22.341,55.684 22.9,55.534 23.433,55.4 
			24.414,55.001 24.856,54.836 25.282,54.628 25.981,54.245 26.613,53.937 27.081,53.646 27.422,53.337 27.955,53.396 28.37,53.438 
			29.188,53.497 29.57,53.497 29.895,53.497 30.144,53.546 30.396,53.646 30.797,53.788 31.242,53.937 32.094,54.194 32.962,54.502 
			33.809,54.743 34.659,54.909 35.531,55.126 36.433,55.251 37.288,55.343 38.147,55.459 38.947,55.534 39.807,55.583 
			40.629,55.583 41.43,55.583 42.188,55.583 42.954,55.492 43.703,55.459 44.428,55.343 45.094,55.201 45.76,55.06 46.4,54.909 
			46.666,54.836 46.96,54.743 47.516,54.527 48.01,54.304 48.473,54.071 48.906,53.828 49.289,53.546 49.441,53.396 49.623,53.188 
			49.854,52.914 50.107,52.572 50.199,52.399 50.242,52.257 50.348,52.074 50.389,51.874 50.389,51.683 50.439,51.492 50.389,51.21 
			50.348,50.969 50.242,50.686 50.158,50.453 49.998,50.171 49.808,49.912 49.623,49.688 49.374,49.496 48.864,49.064 
			48.291,48.647 47.715,48.315 47.107,47.975 45.717,47.309 45.385,47.11 45.294,47.018 45.234,46.96 45.902,46.303 46.193,45.979 
			46.434,45.68 46.901,45.021 47.342,44.349 47.715,43.75 48.068,43.176 48.54,42.028 48.906,41.072 49.15,40.398 49.289,40.173 
			49.374,39.991 49.521,39.883 49.58,39.883 49.623,39.907 49.98,40.598 50.299,41.264 50.523,41.638 50.756,41.961 50.987,42.361 
			51.282,42.752 51.531,43.026 51.681,43.176 51.83,43.31 51.965,43.409 52.096,43.501 52.38,43.642 52.529,43.691 52.628,43.691 
			52.762,43.691 52.912,43.642 53.098,43.55 53.305,43.459 53.477,43.31 53.637,43.135 53.818,42.919 53.961,42.752 54.121,42.486 
			54.244,42.27 54.387,41.961 54.463,41.703 54.67,41.072 54.805,40.374 54.9,39.601 54.969,39.15 54.969,38.776 54.969,38.377 
			54.969,37.887 		"/>
	</g>
</g>
</svg>
