<?xml version="1.0" encoding="utf-8"?>
<!-- Generator: Adobe Illustrator 16.0.0, SVG Export Plug-In . SVG Version: 6.00 Build 0)  -->
<!DOCTYPE svg PUBLIC "-//W3C//DTD SVG 1.1//EN" "http://www.w3.org/Graphics/SVG/1.1/DTD/svg11.dtd">
<svg version="1.1" id="_x33__1_" xmlns="http://www.w3.org/2000/svg" xmlns:xlink="http://www.w3.org/1999/xlink" x="0px" y="0px"
	 width="42px" height="42px" viewBox="0 0 42 42" enable-background="new 0 0 42 42" xml:space="preserve">
<g id="_x33_">
	<g>
		<path fill-rule="evenodd" clip-rule="evenodd" d="M10.5,15.75c-1.45,0-2.625,1.175-2.625,2.625S9.05,21,10.5,21
			s2.625-1.175,2.625-2.625S11.95,15.75,10.5,15.75z M21,15.75c-1.45,0-2.625,1.175-2.625,2.625S19.55,21,21,21
			c1.449,0,2.625-1.175,2.625-2.625S22.449,15.75,21,15.75z M21,0C9.402,0,0,8.227,0,18.375c0,5.8,3.079,10.964,7.875,14.331V42
			l9.2-5.582c1.273,0.211,2.583,0.332,3.925,0.332c11.598,0,21-8.227,21-18.375S32.598,0,21,0z M21,34.125
			c-1.533,0-3.014-0.179-4.437-0.481l-6.179,3.714l0.083-6.089c-4.737-2.848-7.842-7.557-7.842-12.894
			c0-8.698,8.227-15.75,18.375-15.75s18.375,7.052,18.375,15.75S31.148,34.125,21,34.125z M31.5,15.75
			c-1.449,0-2.625,1.175-2.625,2.625S30.051,21,31.5,21s2.625-1.175,2.625-2.625S32.949,15.75,31.5,15.75z"/>
	</g>
</g>
</svg>
