<?xml version="1.0" encoding="utf-8"?>
<!-- Generator: Adobe Illustrator 16.0.0, SVG Export Plug-In . SVG Version: 6.00 Build 0)  -->
<!DOCTYPE svg PUBLIC "-//W3C//DTD SVG 1.1//EN" "http://www.w3.org/Graphics/SVG/1.1/DTD/svg11.dtd">
<svg version="1.1" id="_x36__1_" xmlns="http://www.w3.org/2000/svg" xmlns:xlink="http://www.w3.org/1999/xlink" x="0px" y="0px"
	 width="27px" height="37px" viewBox="0 0 27 37" enable-background="new 0 0 27 37" xml:space="preserve">
<g id="_x36_">
	<g>
		<path fill-rule="evenodd" clip-rule="evenodd" fill="#666666" d="M22.252,19.048c1.564-1.97,3.027-4.371,3.027-7.121
			c0-6.296-5.446-11.519-11.519-11.519c-6.073,0-11.52,5.223-11.52,11.519c0,2.75,1.463,5.151,3.027,7.121
			c-2.872,0.926-4.948,3.443-4.948,6.438v11.399c4.044,0.028,3.282,0,7.331,0h13.789c2.078-0.145,2.418,0.048,5.761,0V25.485
			C27.2,22.491,25.125,19.974,22.252,19.048z M5.208,11.807c0-5.036,3.829-8.52,8.552-8.52c4.724,0,8.553,3.483,8.553,8.52
			s-3.829,8.759-8.553,8.759C9.037,20.565,5.208,16.843,5.208,11.807z M24.32,34.005c-1.814-0.008-1.629-0.062-3.84,0H8.96
			c-2.281,0.044-3.122,0.008-5.76,0v-8.64c0-2.423,2.185-3.611,3.84-3.84c1.801,1.335,4.337,1.92,6.72,1.92s4.92-0.585,6.721-1.92
			c2.642,0.537,3.84,2.376,3.84,4.8V34.005z"/>
	</g>
</g>
</svg>
