<?xml version="1.0" encoding="utf-8"?>
<!-- Generator: Adobe Illustrator 16.0.0, SVG Export Plug-In . SVG Version: 6.00 Build 0)  -->
<!DOCTYPE svg PUBLIC "-//W3C//DTD SVG 1.1//EN" "http://www.w3.org/Graphics/SVG/1.1/DTD/svg11.dtd">
<svg version="1.1" id="椭圆_3_1_" xmlns="http://www.w3.org/2000/svg" xmlns:xlink="http://www.w3.org/1999/xlink" x="0px"
	 y="0px" width="70px" height="80px" viewBox="0 0 70 80" enable-background="new 0 0 70 80" xml:space="preserve">
<g id="椭圆_3">
	<g>
		<path fill-rule="evenodd" clip-rule="evenodd" fill="#999999" d="M17.05,66.021H8.826c-2.464,0-3.783-1.286-3.783-3.735V8.753
			C5.64,6.598,6.362,5.019,8.826,5.019h26.478c-0.041,5.311,0,7.47,0,7.47c0,4.899,4.383,9.727,9.311,9.727
			c0,0,3.146,0.232,8.342,0.232v4.079c1.863,1.243,3.545,2.727,5.043,4.381V17.468L41.609,0.039c-0.287,0-2.932-0.047-5.917,0H8.923
			C3.995,0.039,0,4.011,0,8.909V62.13C0,67.029,3.995,71,8.923,71h13.461C20.391,69.583,18.591,67.915,17.05,66.021z M40.154,4.475
			l11.541,12.993h-7.564c-3.21-0.883-2.934-1.38-3.977-4.123C40.154,13.345,40.154,9.754,40.154,4.475z M69.339,76.304
			L56.441,63.405C59.306,59.512,61,54.704,61,49.5C61,36.521,50.479,26,37.5,26S14,36.521,14,49.5S24.521,73,37.5,73
			c5.972,0,11.419-2.231,15.564-5.9l12.738,12.739c0.781,0.781,2.048,0.781,2.829,0l0.707-0.707
			C70.119,78.351,70.119,77.084,69.339,76.304z M37.5,68C27.283,68,19,59.717,19,49.5C19,39.282,27.283,31,37.5,31
			C47.717,31,56,39.282,56,49.5C56,59.717,47.717,68,37.5,68z"/>
	</g>
</g>
</svg>
