<?xml version="1.0" encoding="utf-8"?>
<!-- Generator: Adobe Illustrator 16.0.0, SVG Export Plug-In . SVG Version: 6.00 Build 0)  -->
<!DOCTYPE svg PUBLIC "-//W3C//DTD SVG 1.1//EN" "http://www.w3.org/Graphics/SVG/1.1/DTD/svg11.dtd">
<svg version="1.1" id="形状_4_1_" xmlns="http://www.w3.org/2000/svg" xmlns:xlink="http://www.w3.org/1999/xlink" x="0px"
	 y="0px" width="62px" height="51px" viewBox="0 0 62 51" enable-background="new 0 0 62 51" xml:space="preserve">
<g id="形状_4">
	<g>
		<path fill-rule="evenodd" clip-rule="evenodd" d="M41.965,15.431c0.711,0,1.414,0.053,2.112,0.131C42.18,6.634,32.732,0,21.949,0
			C9.894,0,0.019,8.303,0.019,18.846c0,6.086,3.285,11.084,8.775,14.96l-2.193,6.666l7.667-3.885
			c2.743,0.549,4.944,1.113,7.682,1.113c0.688,0,1.371-0.034,2.047-0.088c-0.428-1.481-0.677-3.033-0.677-4.644
			C23.32,23.287,31.548,15.431,41.965,15.431z M30.173,9.423c1.651,0,2.745,1.098,2.745,2.765c0,1.661-1.093,2.774-2.745,2.774
			c-1.644,0-3.293-1.113-3.293-2.774C26.88,10.521,28.53,9.423,30.173,9.423z M14.825,14.962c-1.643,0-3.302-1.113-3.302-2.774
			c0-1.667,1.659-2.765,3.302-2.765c1.644,0,2.738,1.098,2.738,2.765C17.563,13.849,16.469,14.962,14.825,14.962z M61.98,32.702
			c0-8.859-8.773-16.081-18.627-16.081c-10.436,0-18.653,7.222-18.653,16.081c0,8.875,8.218,16.081,18.653,16.081
			c2.184,0,4.387-0.557,6.58-1.111L55.948,51l-1.649-5.538C58.701,42.125,61.98,37.7,61.98,32.702z M37.305,29.93
			c-1.092,0-2.193-1.098-2.193-2.218c0-1.104,1.102-2.216,2.193-2.216c1.659,0,2.746,1.112,2.746,2.216
			C40.051,28.832,38.964,29.93,37.305,29.93z M49.368,29.93c-1.085,0-2.179-1.098-2.179-2.218c0-1.104,1.094-2.216,2.179-2.216
			c1.644,0,2.745,1.112,2.745,2.216C52.113,28.832,51.012,29.93,49.368,29.93z"/>
	</g>
</g>
</svg>
