<?xml version="1.0" encoding="utf-8"?>
<!-- Generator: Adobe Illustrator 16.0.0, SVG Export Plug-In . SVG Version: 6.00 Build 0)  -->
<!DOCTYPE svg PUBLIC "-//W3C//DTD SVG 1.1//EN" "http://www.w3.org/Graphics/SVG/1.1/DTD/svg11.dtd">
<svg version="1.1" id="圆角矩形_2_1_" xmlns="http://www.w3.org/2000/svg" xmlns:xlink="http://www.w3.org/1999/xlink" x="0px"
	 y="0px" width="22px" height="21px" viewBox="0 0 22 21" enable-background="new 0 0 22 21" xml:space="preserve">
<g id="圆角矩形_2">
	<g>
		<path fill-rule="evenodd" clip-rule="evenodd" fill="#BCBCBC" d="M15.627,14.061c1.182-1.478,1.893-3.349,1.893-5.389
			c0-4.771-3.867-8.639-8.64-8.639c-4.771,0-8.64,3.868-8.64,8.639c0,4.771,3.869,8.64,8.64,8.64c2.04,0,3.911-0.711,5.39-1.894
			l5.145,5.146c0.377-0.523,0.8-1.008,1.267-1.449L15.627,14.061z M13.995,12.983c-0.2,0.027-0.395,0.102-0.548,0.255
			c-0.154,0.154-0.229,0.349-0.256,0.549c-1.17,0.986-2.661,1.604-4.312,1.604c-3.711,0-6.72-3.009-6.72-6.72
			s3.008-6.719,6.72-6.719c3.712,0,6.72,3.008,6.72,6.719C15.6,10.322,14.982,11.813,13.995,12.983z"/>
	</g>
</g>
</svg>
