<?xml version="1.0" encoding="utf-8"?>
<!-- Generator: Adobe Illustrator 16.0.0, SVG Export Plug-In . SVG Version: 6.00 Build 0)  -->
<!DOCTYPE svg PUBLIC "-//W3C//DTD SVG 1.1//EN" "http://www.w3.org/Graphics/SVG/1.1/DTD/svg11.dtd">
<svg version="1.1" id="_x36__1_" xmlns="http://www.w3.org/2000/svg" xmlns:xlink="http://www.w3.org/1999/xlink" x="0px" y="0px"
	 width="28px" height="28px" viewBox="0 0 28 28" enable-background="new 0 0 28 28" xml:space="preserve">
<g id="_x36_">
	<g>
		<path fill-rule="evenodd" clip-rule="evenodd" d="M20.125,13.125h-5.25V7c0-0.483-0.392-0.875-0.875-0.875S13.125,6.517,13.125,7
			v7c0,0.483,0.392,0.875,0.875,0.875h6.125C20.608,14.875,21,14.483,21,14S20.608,13.125,20.125,13.125z M26.25,14
			c0-6.766-5.484-12.25-12.25-12.25S1.75,7.234,1.75,14c0,4.64,2.581,8.676,6.383,10.755L5.25,28h2.625l2.349-2.35
			c1.19,0.386,2.458,0.6,3.776,0.6s2.586-0.214,3.775-0.6l2.35,2.35h2.625l-2.883-3.245C23.67,22.676,26.25,18.64,26.25,14z
			 M14,24.5C8.201,24.5,3.5,19.799,3.5,14S8.201,3.5,14,3.5S24.5,8.201,24.5,14S19.799,24.5,14,24.5z M1.75,4.375
			c0-1.45,1.175-2.625,2.625-2.625h1.75V0h-1.75C1.959,0,0,1.959,0,4.375v1.75c1.207,0,1.443,0,1.75,0V4.375z M23.625,0h-1.75v1.75
			h1.75c1.449,0,2.625,1.175,2.625,2.625v1.75c0.307,0,0.543,0,1.75,0v-1.75C28,1.959,26.041,0,23.625,0z"/>
	</g>
</g>
</svg>
