<?xml version="1.0" encoding="utf-8"?>
<!-- Generator: Adobe Illustrator 16.0.0, SVG Export Plug-In . SVG Version: 6.00 Build 0)  -->
<!DOCTYPE svg PUBLIC "-//W3C//DTD SVG 1.1//EN" "http://www.w3.org/Graphics/SVG/1.1/DTD/svg11.dtd">
<svg version="1.1" id="_x39__1_" xmlns="http://www.w3.org/2000/svg" xmlns:xlink="http://www.w3.org/1999/xlink" x="0px" y="0px"
	 width="85px" height="85px" viewBox="0 0 85 85" enable-background="new 0 0 85 85" xml:space="preserve">
<g id="_x39_">
	<g>
		<path fill-rule="evenodd" clip-rule="evenodd" fill="#666666" d="M47.813,74.375C47.813,80.243,52.569,85,58.438,85
			s10.625-4.757,10.625-10.625S64.306,63.75,58.438,63.75S47.813,68.507,47.813,74.375z M58.438,69.063
			c2.934,0,5.313,2.379,5.313,5.313c0,2.935-2.379,5.313-5.313,5.313s-5.313-2.378-5.313-5.313
			C53.125,71.441,55.504,69.063,58.438,69.063z M15.938,74.375C15.938,80.243,20.695,85,26.563,85
			c5.868,0,10.625-4.757,10.625-10.625S32.431,63.75,26.563,63.75C20.695,63.75,15.938,68.507,15.938,74.375z M26.563,69.063
			c2.934,0,5.313,2.379,5.313,5.313c0,2.935-2.378,5.313-5.313,5.313s-5.313-2.378-5.313-5.313
			C21.25,71.441,23.628,69.063,26.563,69.063z M74.375,47.813h2.656l7.715-33.43C84.901,14.045,85,13.678,85,13.281
			c0-1.467-1.189-2.656-2.656-2.656H15.938V5.313h2.656c1.467,0,2.656-1.189,2.656-2.657C21.25,1.189,20.061,0,18.594,0H2.656
			C1.189,0,0,1.189,0,2.656c0,1.468,1.189,2.657,2.656,2.657h7.969v47.812c0,5.868,4.757,10.625,10.625,10.625h5.313h31.875h23.906
			c0.083,0,0-2.634,0-5.313H21.25c-2.934,0-5.313-2.378-5.313-5.313v-0.559L74.375,47.813z M15.938,15.938h63.75l-6.792,27.169
			l-56.958,4.497V15.938z"/>
	</g>
</g>
</svg>
